<?xml version="1.0" encoding="UTF-8"?>
<svg version="1.1" xmlns="http://www.w3.org/2000/svg" width="500" height="500">
<path d="M0 0 C7.49431206 6.51387338 11.32484258 16.16333253 15.47937012 24.97998047 C21.11350787 36.92874202 26.9899033 48.75178001 32.90625 60.5625 C33.3412595 61.43105621 33.776269 62.29961243 34.2244606 63.19448853 C37.39681092 69.52691251 40.57300698 75.8574043 43.75 82.1875 C47.36712947 89.39455887 50.98261278 96.60243651 54.59375 103.8125 C55.0289735 104.68130169 55.46419701 105.55010338 55.9126091 106.44523239 C61.17330342 116.95285793 66.35921637 127.48745753 71.37820435 138.1131897 C74.59253052 144.88977439 77.94951707 151.58811655 81.35089874 158.27263641 C82.26752126 160.0743088 83.18233907 161.87688622 84.09661865 163.67974854 C87.79290216 170.96757972 87.79290216 170.96757972 91.51416016 178.24267578 C105.9384321 206.34159549 114.5247218 232.45354232 105.18359375 263.76171875 C100.56641094 276.63802065 93.43316266 288.392574 80.8125 294.625 C72.01292959 298.06831016 63.51364072 297.86603057 54.875 294.171875 C48.69050574 291.04191754 43.24089666 287.04378453 37.6875 282.9375 C16.4972548 267.31871271 -7.29953685 257.80894275 -32.875 251.9375 C-33.51735596 251.78651855 -34.15971191 251.63553711 -34.8215332 251.47998047 C-50.55934253 248.06983344 -66.34077179 247.87032888 -82.37744141 247.92675781 C-85.97966505 247.9374397 -89.58138555 247.92682758 -93.18359375 247.9140625 C-112.77382144 247.90044709 -131.85016589 249.32553416 -151.125 252.8125 C-151.83158752 252.93800232 -152.53817505 253.06350464 -153.26617432 253.19281006 C-168.97127782 256.00179971 -184.42475037 259.75008676 -199.75 264.1875 C-200.83321533 264.49502197 -201.91643066 264.80254395 -203.0324707 265.11938477 C-209.48177532 267.08335194 -214.16842742 269.39696108 -219.1875 273.875 C-220.45959911 274.9458529 -221.73438639 276.01351984 -223.01171875 277.078125 C-223.6361084 277.60341797 -224.26049805 278.12871094 -224.90380859 278.66992188 C-240.75814021 291.70225794 -254.51322823 296.31060964 -274.75 295.1875 C-287.41316539 293.4758694 -298.2357673 285.99840751 -305.875 276 C-315.05659323 263.00883558 -316.64200047 248.47805426 -314.25390625 232.96484375 C-313.58543793 230.58177309 -312.78993723 228.43157507 -311.75 226.1875 C-311.42128906 225.44886719 -311.09257812 224.71023438 -310.75390625 223.94921875 C-304.94945291 212.32022746 -294.63349464 204.22200039 -284.75 196.1875 C-283.35394531 195.04474609 -283.35394531 195.04474609 -281.9296875 193.87890625 C-280.13946914 192.41489386 -278.34779466 190.95266029 -276.5546875 189.4921875 C-271.23387304 185.11993049 -265.99733664 180.64742856 -260.75 176.1875 C-253.73765442 170.2274173 -246.70039195 164.30991205 -239.5625 158.5 C-235.8690609 155.4631723 -232.22701514 152.36789045 -228.58374023 149.27124023 C-225.19045891 146.3920468 -221.76732214 143.55545763 -218.3125 140.75 C-213.44870975 136.79241812 -208.69118769 132.72207554 -203.94165039 128.62915039 C-199.5519965 124.85415609 -195.08885229 121.18021539 -190.59375 117.53125 C-187.27313406 114.79447862 -184.00956291 111.99643615 -180.75 109.1875 C-175.73685227 104.86815728 -170.66462485 100.63652723 -165.52734375 96.46484375 C-162.40603733 93.90546028 -159.32546576 91.30160084 -156.25 88.6875 C-152.30349519 85.33302873 -148.33357928 82.01528171 -144.3125 78.75 C-140.06607618 75.29475849 -135.89703706 71.76052166 -131.75 68.1875 C-126.73680512 63.86821044 -121.6646268 59.63652881 -116.52734375 55.46484375 C-113.40603733 52.90546028 -110.32546576 50.30160084 -107.25 47.6875 C-103.30349519 44.33302873 -99.33357928 41.01528171 -95.3125 37.75 C-91.06606284 34.29474764 -86.89732084 30.76020556 -82.75 27.1875 C-76.82602449 22.09070301 -70.8479244 17.07613138 -64.75 12.1875 C-64.2358252 11.76694336 -63.72165039 11.34638672 -63.19189453 10.91308594 C-46.49401095 -2.72009147 -20.21371682 -13.82492549 0 0 Z " fill="#8181F8" transform="translate(357.75,96.8125)"/>
<path d="M0 0 C17.16 0 34.32 0 52 0 C52 0.66 52 1.32 52 2 C53.28003906 1.94585937 54.56007813 1.89171875 55.87890625 1.8359375 C61.22258035 1.84220819 65.86471012 3.03576301 70.9375 4.625 C72.2524646 5.02779175 72.2524646 5.02779175 73.59399414 5.4387207 C80.00464756 7.48695756 85.49397854 10.10762443 91 14 C91.88816406 14.51175781 92.77632813 15.02351563 93.69140625 15.55078125 C96 17 96 17 97 19 C98.60875 19.8971875 98.60875 19.8971875 100.25 20.8125 C106.46399792 24.28018927 109.9501841 29.18446225 113.66796875 35.109375 C114.86988216 37.13227619 114.86988216 37.13227619 117 38 C117 39.32 117 40.64 117 42 C117.99 42.33 118.98 42.66 120 43 C121.0625 45.21484375 121.0625 45.21484375 122 47.9375 C123.43347107 52.212091 123.43347107 52.212091 127 55 C134.53084506 74.11676053 132.27129837 98.3286905 124.4375 117.00390625 C119.13486952 128.05585619 112.07585952 137.71488106 100.31640625 142.31640625 C90.92080522 145.08913843 82.73264185 144.07543764 74.0625 139.6875 C68.90128668 136.74747737 64.20475449 133.27499642 59.4375 129.75 C46.29479467 120.06284834 32.43778717 112.38873352 17 107 C16.30390625 106.7529834 15.6078125 106.5059668 14.890625 106.25146484 C1.52606155 101.57446004 -12.10948734 98.65719141 -26 96 C-26 95.34 -26 94.68 -26 94 C-61.61221295 90.60467284 -97.87612778 91.57957779 -132.94882202 98.59561157 C-136.54944112 99.30547133 -140.16034945 99.96032092 -143.76953125 100.625 C-147.78207139 101.36610374 -151.74430577 102.13806085 -155.6875 103.1875 C-158.62405148 103.90778621 -160.99830504 104.18760593 -164 104 C-164 104.66 -164 105.32 -164 106 C-171.92 106.495 -171.92 106.495 -180 107 C-180 104 -180 104 -178.125 101.8125 C-176 100 -176 100 -174 100 C-174 99.34 -174 98.68 -174 98 C-173.34 98 -172.68 98 -172 98 C-172 97.34 -172 96.68 -172 96 C-170.57421875 94.59765625 -170.57421875 94.59765625 -168.6875 93.0625 C-166.33322451 91.13268508 -164.14071083 89.16266684 -162 87 C-160.65729148 85.75832698 -159.30255276 84.52956574 -157.9375 83.3125 C-156.89916016 82.37857422 -156.89916016 82.37857422 -155.83984375 81.42578125 C-154 80 -154 80 -152 80 C-152 79.34 -152 78.68 -152 78 C-150.42578125 76.8515625 -150.42578125 76.8515625 -148.3125 75.625 C-143.80987216 72.9139107 -139.99844062 70.02166017 -136.3125 66.25 C-134 64 -134 64 -132 64 C-132 63.34 -132 62.68 -132 62 C-129.91015625 60.51953125 -129.91015625 60.51953125 -127.0625 58.8125 C-123.46353215 56.59001159 -120.04161204 54.343447 -116.75 51.6875 C-112.20601276 48.05067568 -107.39645777 44.89458358 -102.53076172 41.71191406 C-98.11528299 38.80402349 -93.95570225 35.71319971 -89.9296875 32.27734375 C-87.64459402 30.76474139 -85.6933248 30.37743825 -83 30 C-83 29.34 -83 28.68 -83 28 C-79.71491977 25.94682486 -76.7761512 25.6700404 -73 25.44140625 C-70.44749124 24.87805959 -69.07107729 23.57197517 -67 22 C-64.59765625 21.12109375 -64.59765625 21.12109375 -62.0625 20.4375 C-61.17820312 20.18613281 -60.29390625 19.93476563 -59.3828125 19.67578125 C-58.59648437 19.45277344 -57.81015625 19.22976563 -57 19 C-53.67343065 17.86409827 -50.83626526 16.32724105 -47.8125 14.5625 C-43.79234477 12.28907888 -39.89035056 10.88949908 -35.4453125 9.6796875 C-33.19977816 9.05552939 -31.06012154 8.30591935 -28.875 7.5 C-23.80933458 5.76267792 -18.5856603 4.90298308 -13.31982422 4.00195312 C-9.8669372 3.65777122 -9.8669372 3.65777122 -7 2 C-4.66702567 1.95907063 -2.33294775 1.95758277 0 2 C0 1.34 0 0.68 0 0 Z " fill="#C84EC9" transform="translate(336,250)"/>
<path d="M0 0 C0.99 0.33 1.98 0.66 3 1 C2.03960815 1.6501709 2.03960815 1.6501709 1.05981445 2.31347656 C-1.85741914 4.29016975 -4.7724747 6.27005186 -7.6875 8.25 C-9.19860352 9.27287109 -9.19860352 9.27287109 -10.74023438 10.31640625 C-11.71669922 10.98027344 -12.69316406 11.64414062 -13.69921875 12.328125 C-14.59471436 12.9355957 -15.49020996 13.54306641 -16.4128418 14.16894531 C-19.02741174 16.01940059 -21.50799096 17.98871566 -24 20 C-29.66666667 24 -29.66666667 24 -32 24 C-32 24.66 -32 25.32 -32 26 C-33.66666667 27 -35.33333333 28 -37 29 C-39.42907054 31.31057929 -41.71513892 33.67838266 -43.9375 36.1875 C-46.45295571 38.39805198 -48.79648191 39.12631325 -52 40 C-52 40.66 -52 41.32 -52 42 C-53.66666667 43 -55.33333333 44 -57 45 C-57.886875 45.886875 -58.77375 46.77375 -59.6875 47.6875 C-60.450625 48.450625 -61.21375 49.21375 -62 50 C-62.66 50 -63.32 50 -64 50 C-64.66 51.32 -65.32 52.64 -66 54 C-66.66 54 -67.32 54 -68 54 C-68.66 55.32 -69.32 56.64 -70 58 C-70.66 58 -71.32 58 -72 58 C-72 58.66 -72 59.32 -72 60 C-72.66 60 -73.32 60 -74 60 C-74 60.66 -74 61.32 -74 62 C-74.66 62 -75.32 62 -76 62 C-76.66 63.32 -77.32 64.64 -78 66 C-78.66 66 -79.32 66 -80 66 C-80 66.99 -80 67.98 -80 69 C-79.030625 68.835 -78.06125 68.67 -77.0625 68.5 C-72.70512237 67.86603727 -68.39369296 67.9103328 -64 68 C-64 67.34 -64 66.68 -64 66 C-61.60605951 65.36694257 -59.21018016 64.74361464 -56.8125 64.125 C-56.15830078 63.95097656 -55.50410156 63.77695312 -54.83007812 63.59765625 C-48.29075648 61.92408578 -41.67701098 60.95406013 -35 60 C-33.27438843 59.7527417 -33.27438843 59.7527417 -31.51391602 59.50048828 C-26.77197657 58.82659047 -22.02894865 58.16072408 -17.28515625 57.5 C-16.11597656 57.335 -14.94679688 57.17 -13.7421875 57 C-12.7094873 56.855625 -11.67678711 56.71125 -10.61279297 56.5625 C-8.5959711 56.24848746 -6.58112883 55.91364746 -4.58204651 55.50152588 C2.6143431 54.04323275 9.50058107 53.70797394 16.83203125 53.734375 C18.62334724 53.73150482 18.62334724 53.73150482 20.45085144 53.72857666 C22.96276054 53.72722338 25.47467684 53.73085953 27.98657227 53.73925781 C31.79134169 53.74994059 35.59563594 53.73934746 39.40039062 53.7265625 C62.95872587 53.71497026 62.95872587 53.71497026 74 56 C74 56.66 74 57.32 74 58 C73.3494162 57.9297612 72.6988324 57.8595224 72.02853394 57.78715515 C64.88038351 57.06949019 57.81391197 56.83942782 50.6328125 56.83203125 C49.4773996 56.82870285 48.32198669 56.82537445 47.13156128 56.82194519 C44.69610996 56.81690992 42.26065183 56.81453581 39.82519531 56.81469727 C36.16980054 56.8125266 32.51471594 56.79437749 28.859375 56.77539062 C9.15628783 56.72622614 -9.98949943 58.11801375 -29.375 61.625 C-30.43488129 61.81325348 -30.43488129 61.81325348 -31.51617432 62.00531006 C-66.1261349 66.94878739 -66.1261349 66.94878739 -96 82 C-96.99 81.67 -97.98 81.34 -99 81 C-97.515 80.505 -97.515 80.505 -96 80 C-96 79.01 -96 78.02 -96 77 C-95.01 77 -94.02 77 -93 77 C-93 76.34 -93 75.68 -93 75 C-92.34 74.62875 -91.68 74.2575 -91 73.875 C-87.34542919 71.59089324 -84.71324903 68.76836178 -81.76953125 65.64453125 C-80 64 -80 64 -78 64 C-77.73832031 63.42121094 -77.47664063 62.84242188 -77.20703125 62.24609375 C-74.10789615 56.47909478 -68.81624857 51.40342726 -64 47 C-63.34 47 -62.68 47 -62 47 C-61.79375 46.4225 -61.5875 45.845 -61.375 45.25 C-59.85336641 42.76005412 -58.22972272 41.71412622 -55.77734375 40.203125 C-53.66424593 38.77272032 -51.83390019 37.14390168 -49.9375 35.4375 C-47.09310447 32.90075256 -44.34687882 30.84959093 -41 29 C-37.86329943 27.03956214 -35.2107683 25.21631483 -32.625 22.5625 C-29.40370958 19.41790698 -24.74024286 15 -20 15 C-19.77699219 14.40058594 -19.55398437 13.80117188 -19.32421875 13.18359375 C-17.58769145 10.32011658 -15.79371981 9.54694186 -12.8125 8.0625 C-9.31364031 6.26492071 -6.11562829 4.46426913 -3 2.0625 C-2.01 1.381875 -1.02 0.70125 0 0 Z " fill="#9274B3" transform="translate(236,288)"/>
<path d="M0 0 C1.58669495 -0.00472824 1.58669495 -0.00472824 3.20544434 -0.009552 C4.3564563 -0.00752777 5.50746826 -0.00550354 6.69335938 -0.00341797 C8.45226501 -0.00485306 8.45226501 -0.00485306 10.2467041 -0.00631714 C12.73169 -0.00699917 15.21667766 -0.00514331 17.70166016 -0.00097656 C21.52054825 0.00437134 25.33931872 -0.00092083 29.15820312 -0.00732422 C31.56575547 -0.00666344 33.97330774 -0.00538229 36.38085938 -0.00341797 C37.53187134 -0.0054422 38.6828833 -0.00746643 39.86877441 -0.009552 C40.92657104 -0.00639984 41.98436768 -0.00324768 43.07421875 0 C44.47867249 0.00119339 44.47867249 0.00119339 45.91149902 0.00241089 C48.03710938 0.12939453 48.03710938 0.12939453 49.03710938 1.12939453 C50.71894885 1.36226461 52.40835097 1.54203619 54.09960938 1.69189453 C55.01871094 1.77568359 55.9378125 1.85947266 56.88476562 1.94580078 C57.59503906 2.00638672 58.3053125 2.06697266 59.03710938 2.12939453 C59.03710938 3.11939453 59.03710938 4.10939453 59.03710938 5.12939453 C60.39835937 5.00564453 60.39835937 5.00564453 61.78710938 4.87939453 C65.03710938 5.12939453 65.03710938 5.12939453 67.41210938 7.12939453 C68.21648437 8.11939453 68.21648437 8.11939453 69.03710938 9.12939453 C66.07601862 8.57419001 63.20099679 7.90643118 60.28710938 7.12939453 C55.91101523 6.01031702 51.52947701 5.5245565 47.03710938 5.12939453 C47.03710938 4.46939453 47.03710938 3.80939453 47.03710938 3.12939453 C29.87710938 3.12939453 12.71710938 3.12939453 -4.96289062 3.12939453 C-4.96289062 3.78939453 -4.96289062 4.44939453 -4.96289062 5.12939453 C-6.09726562 5.27376953 -7.23164063 5.41814453 -8.40039062 5.56689453 C-11.77066264 5.74110931 -11.77066264 5.74110931 -12.96289062 7.12939453 C-15.37729798 7.60086462 -17.78813802 8.03092422 -20.21289062 8.44189453 C-31.94472869 10.54145553 -45.10526862 13.37104457 -55.02539062 20.25439453 C-58.30676112 22.34888634 -60.88977987 22.85878798 -64.65820312 23.56298828 C-67.77228991 24.32831469 -70.35624398 25.73101864 -73.16601562 27.24267578 C-75.38106186 28.33575294 -77.51878495 28.82388132 -79.96289062 29.12939453 C-76.44466814 24.69337487 -72.20898876 23.60906324 -66.96289062 22.12939453 C-66.96289062 21.46939453 -66.96289062 20.80939453 -66.96289062 20.12939453 C-63.96289062 18.12939453 -63.96289062 18.12939453 -59.96289062 18.12939453 C-59.96289062 17.46939453 -59.96289062 16.80939453 -59.96289062 16.12939453 C-54.60288273 13.8725491 -50.76510813 12.76675594 -44.96289062 13.12939453 C-44.96289062 12.46939453 -44.96289062 11.80939453 -44.96289062 11.12939453 C-40.17737542 8.20491302 -35.66250659 7.48447803 -30.15039062 6.66455078 C-21.99863922 5.65272338 -21.99863922 5.65272338 -14.96289062 2.12939453 C-12.64471974 1.80841702 -10.32509705 1.61718497 -7.99414062 1.41064453 C-4.96560813 0.99130926 -3.42817784 0.00291299 0 0 Z " fill="#8D78BD" transform="translate(340.962890625,246.87060546875)"/>
<path d="M0 0 C2.12388063 2.68730774 3.7423352 5.29463085 5.18505859 8.39794922 C5.59607819 9.27226593 6.00709778 10.14658264 6.43057251 11.0473938 C7.09529068 12.47412918 7.09529068 12.47412918 7.7734375 13.9296875 C12.11288759 23.12375883 16.5865029 32.24294707 21.1640625 41.3203125 C21.78000295 42.54388702 22.39586783 43.76749959 23.01165771 44.9911499 C25.52506702 49.98328363 28.04183325 54.97370382 30.56591797 59.96044922 C32.13988137 63.0707246 33.70796798 66.18390286 35.27235031 69.29900742 C36.14377721 71.03001763 37.02171862 72.75774342 37.89981079 74.48538208 C38.68731216 76.0552034 38.68731216 76.0552034 39.49072266 77.65673828 C39.95274078 78.5710965 40.41475891 79.48545471 40.89077759 80.42752075 C41.98462186 82.96433541 42.56888276 85.27884321 43 88 C42.01 87.67 41.02 87.34 40 87 C38.90234375 84.75 38.90234375 84.75 37.9375 82 C36.8621011 78.24038831 36.8621011 78.24038831 34 76 C34 74.68 34 73.36 34 72 C33.09507812 71.62875 33.09507812 71.62875 32.171875 71.25 C29.64277047 69.79440027 28.73227493 68.48875791 27.25 66 C26.82203125 65.29875 26.3940625 64.5975 25.953125 63.875 C25 62 25 62 25 60 C24.42378906 59.72027344 23.84757812 59.44054687 23.25390625 59.15234375 C21.08057719 58.04119631 19.01294084 56.84615416 16.9375 55.5625 C15.93009766 54.94568359 15.93009766 54.94568359 14.90234375 54.31640625 C13 53 13 53 11.58203125 51.52734375 C6.43345588 46.55674383 -1.40819676 43.6367213 -8 41 C-8 40.67 -8 40.34 -8 40 C-2.0555708 40.40530199 2.71310266 42.42247703 8.1328125 44.84375 C10.77822034 45.91056297 13.19240457 46.54749378 16 47 C16 37.23366165 12.84002772 30.33295413 8 22 C0 6.91620112 0 6.91620112 0 0 Z " fill="#8382E3" transform="translate(419,216)"/>
<path d="M0 0 C8.10720659 12.16080988 5.95014182 32.22657106 3.41064453 45.84204102 C0.30007681 60.86258071 -6.2698085 74.89780574 -19 84 C-26.22338551 88.36703799 -34.10011082 89.87908066 -42.4375 88.4375 C-55.09733651 85.00879428 -65.65691344 75.68597445 -76 68 C-74.0859375 67.41796875 -74.0859375 67.41796875 -72 67 C-70.97702078 67.97648017 -69.98095748 68.98131338 -69 70 C-67.0040278 70.67863055 -65.00431449 71.34641919 -63 72 C-62.67 72.66 -62.34 73.32 -62 74 C-61.21625 74.28875 -60.4325 74.5775 -59.625 74.875 C-56.63071958 76.15826304 -55.89592961 77.44461662 -54 80 C-51.90584196 80.79623822 -51.90584196 80.79623822 -50 81 C-50 81.66 -50 82.32 -50 83 C-49.38511719 83.06058594 -48.77023437 83.12117188 -48.13671875 83.18359375 C-46.92435547 83.30927734 -46.92435547 83.30927734 -45.6875 83.4375 C-44.48673828 83.55931641 -44.48673828 83.55931641 -43.26171875 83.68359375 C-41 84 -41 84 -38 85 C-30.1674075 85.66377903 -25.68633078 83.24385352 -19.125 79.25 C-17 78 -17 78 -15 78 C-14.92265625 77.443125 -14.8453125 76.88625 -14.765625 76.3125 C-13.73471435 73.19872905 -11.93822141 71.43457746 -9.75 69 C2.85267224 53.83271401 3.11273773 33.90370219 2 15 C1.62405305 12.24845727 1.15821444 9.6503106 0.4375 6.97265625 C-0.08626186 4.61105143 -0.06709422 2.41119846 0 0 Z " fill="#836785" transform="translate(462,305)"/>
<path d="M0 0 C1.79131599 -0.00287018 1.79131599 -0.00287018 3.61882019 -0.00579834 C6.13072929 -0.00715162 8.64264559 -0.00351547 11.15454102 0.00488281 C14.95931044 0.01556559 18.76360469 0.00497246 22.56835938 -0.0078125 C46.12669462 -0.01940474 46.12669462 -0.01940474 57.16796875 2.265625 C57.16796875 2.925625 57.16796875 3.585625 57.16796875 4.265625 C56.51738495 4.1953862 55.86680115 4.1251474 55.19650269 4.05278015 C48.04835226 3.33511519 40.98188072 3.10505282 33.80078125 3.09765625 C32.64536835 3.09432785 31.48995544 3.09099945 30.29953003 3.08757019 C27.86407871 3.08253492 25.42862058 3.08016081 22.99316406 3.08032227 C19.33776929 3.0781516 15.68268469 3.06000249 12.02734375 3.04101562 C-7.94697687 2.9909177 -27.25561951 4.48035383 -46.89453125 8.078125 C-47.97651291 8.27163544 -47.97651291 8.27163544 -49.08035278 8.46905518 C-59.62227466 10.35542339 -70.01975774 12.57347473 -80.359375 15.3828125 C-83.83203125 16.265625 -83.83203125 16.265625 -86.83203125 16.265625 C-86.83203125 15.605625 -86.83203125 14.945625 -86.83203125 14.265625 C-84.85203125 14.265625 -82.87203125 14.265625 -80.83203125 14.265625 C-80.83203125 13.605625 -80.83203125 12.945625 -80.83203125 12.265625 C-78.43809076 11.63256757 -76.04221141 11.00923964 -73.64453125 10.390625 C-72.99033203 10.21660156 -72.33613281 10.04257812 -71.66210938 9.86328125 C-65.12278773 8.18971078 -58.50904223 7.21968513 -51.83203125 6.265625 C-50.68162354 6.10078613 -49.53121582 5.93594727 -48.34594727 5.76611328 C-43.60400782 5.09221547 -38.8609799 4.42634908 -34.1171875 3.765625 C-32.94800781 3.600625 -31.77882812 3.435625 -30.57421875 3.265625 C-29.54151855 3.12125 -28.50881836 2.976875 -27.44482422 2.828125 C-25.42800235 2.51411246 -23.41316008 2.17927246 -21.41407776 1.76715088 C-14.21768815 0.30885775 -7.33145018 -0.02640106 0 0 Z " fill="#826482" transform="translate(252.83203125,341.734375)"/>
<path d="M0 0 C-0.33 0.99 -0.66 1.98 -1 3 C-1.66 3 -2.32 3 -3 3 C-3.37125 4.2065625 -3.37125 4.2065625 -3.75 5.4375 C-4.1625 6.283125 -4.575 7.12875 -5 8 C-7.0625 8.6875 -7.0625 8.6875 -9 9 C-9.33 9.66 -9.66 10.32 -10 11 C-10.66 11 -11.32 11 -12 11 C-12 11.66 -12 12.32 -12 13 C-12.66 13 -13.32 13 -14 13 C-14 13.66 -14 14.32 -14 15 C-15.051875 15.53625 -16.10375 16.0725 -17.1875 16.625 C-19.94389272 18.17547091 -21.75827412 19.68553519 -23.6875 22.1875 C-26.11160783 25.13573926 -26.54923094 25.28604778 -30 26 C-31.28436734 27.9837767 -31.28436734 27.9837767 -32 30 C-32.66 30 -33.32 30 -34 30 C-34 30.66 -34 31.32 -34 32 C-35.65 32.66 -37.3 33.32 -39 34 C-39 34.99 -39 35.98 -39 37 C-40.72265625 38.39453125 -40.72265625 38.39453125 -43.0625 39.8125 C-46.90333301 42.2296804 -50.25697931 44.82558376 -53.58984375 47.8984375 C-55 49 -55 49 -57 49 C-57.33 49.99 -57.66 50.98 -58 52 C-63.46511628 57 -63.46511628 57 -66 57 C-66.33 57.99 -66.66 58.98 -67 60 C-68.99609375 61.60546875 -68.99609375 61.60546875 -71.4375 63.1875 C-72.64212891 63.98220703 -72.64212891 63.98220703 -73.87109375 64.79296875 C-76 66 -76 66 -78 66 C-78 66.66 -78 67.32 -78 68 C-79.32 67.67 -80.64 67.34 -82 67 C-81.35675781 66.47792969 -80.71351563 65.95585937 -80.05078125 65.41796875 C-72.62306489 59.36771762 -65.29928729 53.20396633 -58 47 C-51.89111965 41.80780978 -45.78489359 36.61876419 -39.5625 31.5625 C-34.70395043 27.60918237 -29.9513591 23.54345748 -25.20703125 19.45483398 C-20.66956528 15.55263823 -16.0653031 11.74673879 -11.4140625 7.98046875 C-9.21348373 6.17513956 -7.07115149 4.32090841 -4.9375 2.4375 C-2 0 -2 0 0 0 Z " fill="#7474A0" transform="translate(210,180)"/>
<path d="M0 0 C1.51013672 0.36544922 1.51013672 0.36544922 3.05078125 0.73828125 C5.70127062 1.69245742 6.92287662 2.53742987 8.6875 4.6875 C4.6875 4.6875 4.6875 4.6875 2.0546875 3.70703125 C-2.41645441 2.35324002 -6.54296539 2.3577469 -11.1875 2.375 C-12.04730469 2.35888672 -12.90710938 2.34277344 -13.79296875 2.32617188 C-19.67237081 2.32171102 -23.9137012 3.37372909 -29.3125 5.6875 C-30.96922637 6.06716646 -32.63320245 6.42510976 -34.3125 6.6875 C-34.3125 7.3475 -34.3125 8.0075 -34.3125 8.6875 C-37.3125 10.6875 -37.3125 10.6875 -40.75 11.625 C-44.26602164 12.44971434 -44.26602164 12.44971434 -46.5625 14.375 C-47.14 14.808125 -47.7175 15.24125 -48.3125 15.6875 C-49.3025 15.3575 -50.2925 15.0275 -51.3125 14.6875 C-37.28879759 2.42816796 -18.75152824 -4.74260442 0 0 Z " fill="#676986" transform="translate(347.3125,92.3125)"/>
<path d="M0 0 C0.99 0.33 1.98 0.66 3 1 C-9.92724627 12.55402231 -23.86719917 22.67055186 -41.875 22.375 C-43.18283447 22.36412354 -43.18283447 22.36412354 -44.51708984 22.35302734 C-59.97788489 22.02211511 -59.97788489 22.02211511 -65 17 C-61.7 17 -58.4 17 -55 17 C-55 17.66 -55 18.32 -55 19 C-51.22931943 19.08849232 -47.45891235 19.14088454 -43.6875 19.1875 C-42.63498047 19.21263672 -41.58246094 19.23777344 -40.49804688 19.26367188 C-33.19703914 19.33106579 -26.9297755 18.29669107 -20 16 C-20 15.34 -20 14.68 -20 14 C-19.05125 13.566875 -18.1025 13.13375 -17.125 12.6875 C-13.79958063 11.20697799 -13.79958063 11.20697799 -12 8 C-10.28262626 6.99549838 -8.56187353 5.99511616 -6.80859375 5.0546875 C-4.74975665 3.92290779 -4.74975665 3.92290779 -2.25 1.6875 C-1.5075 1.130625 -0.765 0.57375 0 0 Z " fill="#727798" transform="translate(135,370)"/>
<path d="M0 0 C0.495 1.485 0.495 1.485 1 3 C0.2575 3.5775 -0.485 4.155 -1.25 4.75 C-3.93470068 6.87043787 -3.93470068 6.87043787 -5.9375 8.9375 C-7.61508303 10.61508303 -9.27284095 12.03352056 -11.125 13.5 C-13.64711262 15.69314141 -14.86578422 16.9376174 -16 20 C-16.99 20 -17.98 20 -19 20 C-19.268125 20.598125 -19.53625 21.19625 -19.8125 21.8125 C-21.00987475 24.01819033 -22.04478984 25.43583187 -24 27 C-24.99 27 -25.98 27 -27 27 C-27 27.66 -27 28.32 -27 29 C-32.45769231 32.10096154 -32.45769231 32.10096154 -35.203125 31.58984375 C-35.79609375 31.39519531 -36.3890625 31.20054687 -37 31 C-29.65346481 24.66160248 -22.28616366 18.36394813 -14.75390625 12.24609375 C-9.80088406 8.2063948 -4.90373149 4.0992799 0 0 Z " fill="#696C8A" transform="translate(127,248)"/>
<path d="M0 0 C8.11180643 12.16770965 5.93598741 32.21179838 3.41503906 45.83544922 C1.37088152 55.75994894 -2.26645125 64.64540039 -8 73 C-9 70 -9 70 -7.890625 67.328125 C-7.34921875 66.31234375 -6.8078125 65.2965625 -6.25 64.25 C2.51654363 47.65314556 5.41121516 25.45138966 0.4375 6.97265625 C-0.08626186 4.61105143 -0.06709422 2.41119846 0 0 Z " fill="#886989" transform="translate(462,305)"/>
<path d="M0 0 C0 0.33 0 0.66 0 1 C-1.12148437 1.07476562 -2.24296875 1.14953125 -3.3984375 1.2265625 C-26.32385889 2.97975331 -49.3428932 7.08953549 -71.52734375 13.1171875 C-75 14 -75 14 -78 14 C-78 13.34 -78 12.68 -78 12 C-76.02 12 -74.04 12 -72 12 C-72 11.34 -72 10.68 -72 10 C-69.60605951 9.36694257 -67.21018016 8.74361464 -64.8125 8.125 C-64.15830078 7.95097656 -63.50410156 7.77695312 -62.83007812 7.59765625 C-56.28997843 5.92388666 -49.67416278 4.97550904 -43 4 C-40.71077958 3.64424388 -38.42171775 3.28746579 -36.1328125 2.9296875 C-12.02852886 -0.73644054 -12.02852886 -0.73644054 0 0 Z " fill="#826785" transform="translate(244,344)"/>
<path d="M0 0 C2.15211949 2.71932082 3.7778791 5.36759044 5.2421875 8.5078125 C5.66266357 9.40024658 6.08313965 10.29268066 6.51635742 11.2121582 C6.96470947 12.173396 7.41306152 13.13463379 7.875 14.125 C11.05005203 20.86347464 14.26272471 27.57757796 17.61328125 34.23046875 C18.0613916 35.12064697 18.0613916 35.12064697 18.51855469 36.02880859 C19.98469814 38.937178 21.45720595 41.84219073 22.93505859 44.74462891 C23.46566895 45.79440918 23.9962793 46.84418945 24.54296875 47.92578125 C25.01758545 48.85817627 25.49220215 49.79057129 25.98120117 50.7512207 C27 53 27 53 27 55 C24.25862624 53.99790119 23.19106588 53.3585587 21.796875 50.7421875 C21.45140625 49.79601562 21.1059375 48.84984375 20.75 47.875 C18.69645369 42.60720728 16.40255096 37.55163319 13.875 32.5 C13.53823242 31.8179248 13.20146484 31.13584961 12.85449219 30.43310547 C11.14593368 27.03373313 9.30610624 24.01464903 7 21 C6.2527483 19.08313694 5.51019983 17.16366707 4.828125 15.22265625 C3.65988481 12.08714365 2.21731824 9.09299229 0.76953125 6.078125 C0 4 0 4 0 0 Z " fill="#717492" transform="translate(419,216)"/>
<path d="M0 0 C9.11380759 -0.29399379 17.07800554 1.18704509 25.65625 4.22265625 C28.22545444 5.07477572 30.81096436 5.72205504 33.4375 6.375 C39.06332991 7.88303496 43.88078775 10.26975346 49 13 C51.20571063 14.10939657 53.41408082 15.21352024 55.625 16.3125 C58.3125 17.65625 58.3125 17.65625 61 19 C61 19.66 61 20.32 61 21 C57.49414934 19.63661363 54.06441426 18.13857359 50.63696289 16.58959961 C34.24339799 9.23925107 17.46565412 5.00310719 0 1 C0 0.67 0 0.34 0 0 Z " fill="#8F698F" transform="translate(316,346)"/>
<path d="M0 0 C3.86885998 4.86148092 6.36480741 10.40072413 9.125 15.9375 C9.67542969 17.02224609 10.22585938 18.10699219 10.79296875 19.22460938 C11.31761719 20.27326172 11.84226562 21.32191406 12.3828125 22.40234375 C12.86121582 23.35616943 13.33961914 24.30999512 13.83251953 25.29272461 C14.95045664 27.88511368 15.56493118 30.21941136 16 33 C14.515 32.505 14.515 32.505 13 32 C11.90234375 29.75 11.90234375 29.75 10.9375 27 C9.8621011 23.24038831 9.8621011 23.24038831 7 21 C7 19.68 7 18.36 7 17 C6.39671875 16.7525 5.7934375 16.505 5.171875 16.25 C2.64277047 14.79440027 1.73227493 13.48875791 0.25 11 C-0.17796875 10.29875 -0.6059375 9.5975 -1.046875 8.875 C-2 7 -2 7 -2 5 C-1.34 5 -0.68 5 0 5 C0 3.35 0 1.7 0 0 Z " fill="#A365A1" transform="translate(446,271)"/>
<path d="M0 0 C1 2 1 2 0.0625 5.1875 C-2.96265993 11.83452571 -9.40170768 16.3064942 -16 19 C-18.74593041 19.28492869 -21.20497517 19.42153306 -23.9375 19.375 C-24.61490234 19.38660156 -25.29230469 19.39820313 -25.99023438 19.41015625 C-31.08317537 19.38085841 -34.52504021 18.20539088 -39 16 C-36.11665873 14.55832936 -34.19171666 15.72373842 -31.2109375 16.50390625 C-22.66079943 18.42240013 -17.34260512 15.64332485 -10.125 11.25 C-8 10 -8 10 -6 10 C-5.938125 9.46375 -5.87625 8.9275 -5.8125 8.375 C-4.61972618 4.88843038 -2.43802834 2.75059607 0 0 Z " fill="#9F649E" transform="translate(453,373)"/>
<path d="M0 0 C0.33 0.99 0.66 1.98 1 3 C-0.61594832 5.04119788 -2.2856382 7.04072937 -4 9 C-4.33 9.99 -4.66 10.98 -5 12 C-6.96875 13.17578125 -6.96875 13.17578125 -9.5 14.3125 C-14.68228098 16.76176248 -19.31743376 19.70863098 -24 23 C-24.66 22.67 -25.32 22.34 -26 22 C-17.61307413 14.30440425 -8.89010958 7.10251124 0 0 Z " fill="#8181D3" transform="translate(249,146)"/>
<path d="M0 0 C-0.33 0.99 -0.66 1.98 -1 3 C-1.66 3 -2.32 3 -3 3 C-3.2475 3.804375 -3.495 4.60875 -3.75 5.4375 C-4.1625 6.283125 -4.575 7.12875 -5 8 C-7.0625 8.6875 -7.0625 8.6875 -9 9 C-9.33 9.66 -9.66 10.32 -10 11 C-10.66 11 -11.32 11 -12 11 C-12 11.66 -12 12.32 -12 13 C-12.66 13 -13.32 13 -14 13 C-14 13.66 -14 14.32 -14 15 C-15.051875 15.53625 -16.10375 16.0725 -17.1875 16.625 C-21.01379782 18.78401544 -23.19902134 21.62446162 -26 25 C-29.29930395 26.97958237 -31.15073315 28 -35 28 C-27.21464074 21.20225717 -19.41985976 14.4403897 -11.37890625 7.9453125 C-9.18799846 6.15373273 -7.05875174 4.31047381 -4.9375 2.4375 C-2 0 -2 0 0 0 Z " fill="#6D6E8F" transform="translate(210,180)"/>
<path d="M0 0 C1.9375 0.8125 1.9375 0.8125 4 2 C4.33 2.99 4.66 3.98 5 5 C5.99 5 6.98 5 8 5 C8.66 6.65 9.32 8.3 10 10 C10.66 10 11.32 10 12 10 C12 10.66 12 11.32 12 12 C14.63904371 13.41377341 17.07120629 14.37240135 20 15 C20 15.66 20 16.32 20 17 C20.99 17.33 21.98 17.66 23 18 C22.67 18.99 22.34 19.98 22 21 C11.88461602 17.29752145 5.66490446 9.92183863 0 1 C0 0.67 0 0.34 0 0 Z " fill="#6C6D93" transform="translate(48,366)"/>
<path d="M0 0 C17.16 0 34.32 0 52 0 C52 0.66 52 1.32 52 2 C50.6996582 1.98952637 49.39931641 1.97905273 48.05957031 1.96826172 C43.18411061 1.9317587 38.30866271 1.90899038 33.43310547 1.89013672 C31.33249879 1.88014764 29.23190577 1.86655175 27.13134766 1.84912109 C9.66582743 0.91293927 9.66582743 0.91293927 -7 5 C-8.54023996 5.06950541 -10.08334988 5.08452357 -11.625 5.0625 C-12.85089844 5.04896484 -12.85089844 5.04896484 -14.1015625 5.03515625 C-15.04128906 5.01775391 -15.04128906 5.01775391 -16 5 C-16 4.67 -16 4.34 -16 4 C-13.94921875 3.77213542 -11.8984375 3.54427083 -9.84765625 3.31640625 C-7.98859771 3.18113386 -7.98859771 3.18113386 -7 2 C-4.66702567 1.95907063 -2.33294775 1.95758277 0 2 C0 1.34 0 0.68 0 0 Z " fill="#B65ABA" transform="translate(336,250)"/>
<path d="M0 0 C11.85613216 0.80837265 20.90659675 6.69907359 29 15 C29.763125 15.763125 30.52625 16.52625 31.3125 17.3125 C32.1478125 18.1478125 32.1478125 18.1478125 33 19 C29.05279312 19 27.98444897 17.47490891 25 15 C24.29875 14.649375 23.5975 14.29875 22.875 13.9375 C21 13 21 13 19.7109375 11.62890625 C14.4612605 6.63092609 6.67846203 3.67138481 0 1 C0 0.67 0 0.34 0 0 Z " fill="#9571AE" transform="translate(411,256)"/>
<path d="M0 0 C0.33 0 0.66 0 1 0 C0.9278125 0.66902344 0.855625 1.33804687 0.78125 2.02734375 C0.17529704 8.29727373 -0.10846122 14.51742774 -0.125 20.8125 C-0.12951172 21.51689209 -0.13402344 22.22128418 -0.13867188 22.94702148 C-0.55468658 30.46817825 -0.55468658 30.46817825 2 37 C2.04063832 38.66617115 2.042721 40.33388095 2 42 C-3.64771239 36.35228761 -3.3293747 27.50605233 -3.375 20 C-3.34514035 12.96220958 -2.88666427 6.52935965 0 0 Z " fill="#70728F" transform="translate(46,323)"/>
<path d="M0 0 C0.66 0.33 1.32 0.66 2 1 C1.525625 1.433125 1.05125 1.86625 0.5625 2.3125 C-1.23686957 4.02309613 -1.23686957 4.02309613 -2 7 C-2.97850195 8.02104551 -3.97980427 9.0206121 -5 10 C-5.99 11.485 -5.99 11.485 -7 13 C-7.66 13 -8.32 13 -9 13 C-9.33 13.99 -9.66 14.98 -10 16 C-11.65 16 -13.3 16 -15 16 C-15.33 16.66 -15.66 17.32 -16 18 C-17.32 17.67 -18.64 17.34 -20 17 C-18.71416016 15.91332031 -18.71416016 15.91332031 -17.40234375 14.8046875 C-11.58620036 9.8875185 -5.77318816 4.96762702 0 0 Z " fill="#7777B2" transform="translate(270,128)"/>
<path d="M0 0 C0.33 0.66 0.66 1.32 1 2 C-0.28062485 3.7074998 -1.61767557 5.37373596 -3 7 C-3.66 7 -4.32 7 -5 7 C-5 7.66 -5 8.32 -5 9 C-8.46153846 12 -8.46153846 12 -11 12 C-11.33 12.99 -11.66 13.98 -12 15 C-12.99 15 -13.98 15 -15 15 C-15 15.66 -15 16.32 -15 17 C-16.75 18.6875 -16.75 18.6875 -19 20 C-21.140625 19.58203125 -21.140625 19.58203125 -23 19 C-15.42784342 12.54349031 -7.818133 6.15920636 0 0 Z " fill="#6D6F97" transform="translate(89,280)"/>
<path d="M0 0 C-4.83672405 3.45292017 -8.92082045 5.42071608 -14.765625 6.46875 C-17.8584477 7.20410645 -20.41839036 8.61509401 -23.203125 10.11328125 C-25.41817123 11.20635841 -27.55589432 11.69448679 -30 12 C-26.48177751 7.56398034 -22.24609814 6.47966871 -17 5 C-17 4.34 -17 3.68 -17 3 C-14.73194205 2.30190555 -12.46133393 1.61628983 -10.1875 0.9375 C-9.54490234 0.73833984 -8.90230469 0.53917969 -8.24023438 0.33398438 C-3.33984375 -1.11328125 -3.33984375 -1.11328125 0 0 Z " fill="#9273B0" transform="translate(291,264)"/>
<path d="M0 0 C0 3 0 3 -1 5 C-0.154375 4.67 0.69125 4.34 1.5625 4 C5.20989216 2.93894046 8.22274664 2.84890987 12 3 C8.0030668 5.66462213 3.66185553 6.64887101 -0.93164062 7.88085938 C-4.70056632 8.97733823 -7.37464533 10.09435015 -10.32421875 12.73046875 C-11.20722656 13.47941406 -12.09023437 14.22835938 -13 15 C-13.99 14.67 -14.98 14.34 -16 14 C-15.01 13.67 -14.02 13.34 -13 13 C-13 12.01 -13 11.02 -13 10 C-12.01 10 -11.02 10 -10 10 C-10 9.34 -10 8.68 -10 8 C-8.33333333 7 -6.66666667 6 -5 5 C-3.2958946 3.37163262 -1.61974559 1.71230248 0 0 Z " fill="#8D6E92" transform="translate(153,355)"/>
<path d="M0 0 C0.66 0.33 1.32 0.66 2 1 C0.90344712 2.31886772 -0.20253423 3.62990057 -1.3125 4.9375 C-1.92738281 5.66839844 -2.54226563 6.39929688 -3.17578125 7.15234375 C-5 9 -5 9 -8 10 C-8 10.66 -8 11.32 -8 12 C-11 14 -11 14 -14 14 C-14.268125 14.61875 -14.53625 15.2375 -14.8125 15.875 C-16 18 -16 18 -19 20 C-19.99 19.67 -20.98 19.34 -22 19 C-15.87029433 13.37556291 -9.62236223 7.9768312 -3.15234375 2.75 C-1.14403815 1.17822462 -1.14403815 1.17822462 0 0 Z " fill="#727399" transform="translate(294,108)"/>
<path d="M0 0 C3.3 0 6.6 0 10 0 C10 0.66 10 1.32 10 2 C17.26 2.33 24.52 2.66 32 3 C32 3.33 32 3.66 32 4 C21.83338773 5.8843945 11.71817409 5.85894709 2 2 C1.34 1.34 0.68 0.68 0 0 Z " fill="#7779A6" transform="translate(70,387)"/>
<path d="M0 0 C0 0.99 0 1.98 0 3 C-0.99 3 -1.98 3 -3 3 C-3.268125 3.598125 -3.53625 4.19625 -3.8125 4.8125 C-5.00987475 7.01819033 -6.04478984 8.43583187 -8 10 C-8.99 10 -9.98 10 -11 10 C-11 10.66 -11 11.32 -11 12 C-16.45769231 15.10096154 -16.45769231 15.10096154 -19.203125 14.58984375 C-19.79609375 14.39519531 -20.3890625 14.20054687 -21 14 C-19.28380301 12.48517814 -17.55149325 10.9885966 -15.8125 9.5 C-14.84957031 8.6646875 -13.88664062 7.829375 -12.89453125 6.96875 C-9.84750871 4.89628123 -8.58401694 4.5282464 -5 5 C-4.67 4.01 -4.34 3.02 -4 2 C-1.9375 0.8125 -1.9375 0.8125 0 0 Z " fill="#8582DA" transform="translate(111,265)"/>
<path d="M0 0 C3.07184758 3.70172169 5.06821752 7.84044699 7.1875 12.125 C7.55552734 12.85332031 7.92355469 13.58164063 8.30273438 14.33203125 C11 19.74657931 11 19.74657931 11 22 C8 22 8 22 6.375 20.5 C4.9833399 17.96970891 4.78204013 16.6830714 4.5625 13.875 C4.376875 12.59625 4.19125 11.3175 4 10 C2.07935207 8.4100567 2.07935207 8.4100567 0 8 C0 5.36 0 2.72 0 0 Z " fill="#72739C" transform="translate(386,150)"/>
<path d="M0 0 C0 0.33 0 0.66 0 1 C-1.7015625 1.2165625 -1.7015625 1.2165625 -3.4375 1.4375 C-6.80777201 1.61171478 -6.80777201 1.61171478 -8 3 C-10.64370501 3.53869515 -13.28061359 4.03613565 -15.9375 4.5 C-21.11577765 5.26474372 -21.11577765 5.26474372 -26 7 C-27.99960012 7.039992 -30.00047242 7.04346799 -32 7 C-31.4121875 6.71253906 -30.824375 6.42507813 -30.21875 6.12890625 C-28.88392848 5.4497453 -27.56420116 4.73753024 -26.28125 3.96484375 C-18.24708964 -0.66889347 -9.0332801 -0.17371693 0 0 Z " fill="#9A6CAC" transform="translate(336,251)"/>
<path d="M0 0 C0 0.99 0 1.98 0 3 C-0.99 3.33 -1.98 3.66 -3 4 C-3 4.66 -3 5.32 -3 6 C-3.66 6 -4.32 6 -5 6 C-5 6.66 -5 7.32 -5 8 C-5.66 8 -6.32 8 -7 8 C-7.66 9.32 -8.32 10.64 -9 12 C-9.66 12 -10.32 12 -11 12 C-11 12.99 -11 13.98 -11 15 C-7.7 14.67 -4.4 14.34 -1 14 C-1 14.66 -1 15.32 -1 16 C-2.5823006 16.33820166 -4.16589375 16.67035939 -5.75 17 C-6.63171875 17.185625 -7.5134375 17.37125 -8.421875 17.5625 C-11 18 -11 18 -15 18 C-14.25 15.125 -14.25 15.125 -13 12 C-11 10.875 -11 10.875 -9 10 C-8.70351562 9.38898438 -8.40703125 8.77796875 -8.1015625 8.1484375 C-6.84752874 5.70262697 -5.49483378 4.47727197 -3.375 2.75 C-2.74335938 2.22921875 -2.11171875 1.7084375 -1.4609375 1.171875 C-0.73777344 0.59179688 -0.73777344 0.59179688 0 0 Z " fill="#9A6CA9" transform="translate(167,342)"/>
<path d="M0 0 C0 0.66 0 1.32 0 2 C-3.9360551 3.00574701 -7.87406674 4.00361005 -11.8125 5 C-13.49182617 5.42925781 -13.49182617 5.42925781 -15.20507812 5.8671875 C-16.81479492 6.27324219 -16.81479492 6.27324219 -18.45703125 6.6875 C-19.44678955 6.93886719 -20.43654785 7.19023437 -21.45629883 7.44921875 C-24 8 -24 8 -27 8 C-27 7.34 -27 6.68 -27 6 C-25.02 6 -23.04 6 -21 6 C-21 5.34 -21 4.68 -21 4 C-18.43923903 3.32595716 -15.87673417 2.660586 -13.3125 2 C-12.59126953 1.80921875 -11.87003906 1.6184375 -11.12695312 1.421875 C-7.33149039 0.45134572 -3.95384561 -0.24955239 0 0 Z " fill="#916992" transform="translate(193,350)"/>
<path d="M0 0 C0 0.99 0 1.98 0 3 C-0.99 3.33 -1.98 3.66 -3 4 C-3 4.66 -3 5.32 -3 6 C-4.65 6.66 -6.3 7.32 -8 8 C-8 8.99 -8 9.98 -8 11 C-10.31 12.32 -12.62 13.64 -15 15 C-15.33 14.01 -15.66 13.02 -16 12 C-14.27427512 10.55836993 -12.5442653 9.12186835 -10.8125 7.6875 C-9.84957031 6.88699219 -8.88664063 6.08648437 -7.89453125 5.26171875 C-5.34411083 3.26888012 -2.81357599 1.58938754 0 0 Z " fill="#6E7197" transform="translate(179,206)"/>
<path d="M0 0 C-0.99 0 -1.98 0 -3 0 C-3 0.66 -3 1.32 -3 2 C-6 4 -6 4 -9.4375 4.9375 C-12.95352164 5.76221434 -12.95352164 5.76221434 -15.25 7.6875 C-15.8275 8.120625 -16.405 8.55375 -17 9 C-17.99 8.67 -18.98 8.34 -20 8 C-18.47065791 6.67315972 -16.92590495 5.36407067 -15.375 4.0625 C-14.51648438 3.33160156 -13.65796875 2.60070312 -12.7734375 1.84765625 C-8.62380355 -0.9168182 -4.74599222 -1.64284346 0 0 Z " fill="#7779AC" transform="translate(316,99)"/>
<path d="M0 0 C2.29648357 2.89585905 4.04347557 5.8172031 5.6875 9.125 C6.34298828 10.42824219 6.34298828 10.42824219 7.01171875 11.7578125 C8 14 8 14 8 16 C7.34 16 6.68 16 6 16 C6 15.34 6 14.68 6 14 C5.01 13.67 4.02 13.34 3 13 C-2 7.53488372 -2 7.53488372 -2 5 C-1.34 5 -0.68 5 0 5 C0 3.35 0 1.7 0 0 Z " fill="#7B6C7E" transform="translate(446,271)"/>
<path d="M0 0 C0.66 0.33 1.32 0.66 2 1 C1.01 1.33 0.02 1.66 -1 2 C-1.2475 2.763125 -1.495 3.52625 -1.75 4.3125 C-3.27321613 7.58741468 -5.1157063 8.41456465 -8.2578125 10.03125 C-10.59480428 11.33074319 -12.21661022 13.02553275 -14 15 C-15.625 16.75 -15.625 16.75 -17 18 C-17.66 18 -18.32 18 -19 18 C-19 18.66 -19 19.32 -19 20 C-19.99 19.67 -20.98 19.34 -22 19 C-21.360625 18.731875 -20.72125 18.46375 -20.0625 18.1875 C-17.66868314 17.11332248 -17.66868314 17.11332248 -17 14 C-15.66666667 13.33333333 -14.33333333 12.66666667 -13 12 C-9.95192919 9.24222165 -7.56176751 6.83342935 -6 3 C-4.68 3 -3.36 3 -2 3 C-2 2.34 -2 1.68 -2 1 C-1.34 0.67 -0.68 0.34 0 0 Z " fill="#8483DC" transform="translate(134,245)"/>
<path d="M0 0 C1 2 1 2 0.25 4.5625 C-1 7 -1 7 -4 8 C-4.639375 8.66 -5.27875 9.32 -5.9375 10 C-8.05674715 12.05502754 -9.13747914 12.59106845 -12 13 C-10.44997253 9.11602311 -7.99523379 6.97020381 -4.875 4.25 C-3.96492188 3.45078125 -3.05484375 2.6515625 -2.1171875 1.828125 C-1.06917969 0.92320312 -1.06917969 0.92320312 0 0 Z " fill="#6D6D95" transform="translate(65,300)"/>
<path d="M0 0 C-2.71834092 3.05813353 -5.24423489 3.94134747 -9.0625 5.15625 C-11.24625717 6.10724102 -12.34813595 7.31251624 -14 9 C-17.1875 10.1875 -17.1875 10.1875 -20 11 C-14.70588235 4.23529412 -14.70588235 4.23529412 -11 3 C-10.01 3 -9.02 3 -8 3 C-8 2.34 -8 1.68 -8 1 C-4.93251126 -0.86240388 -3.40254489 -1.2151946 0 0 Z " fill="#9A6EAF" transform="translate(261,277)"/>
<path d="M0 0 C0.99 0.33 1.98 0.66 3 1 C-0.06902286 3.20814501 -3.15726995 5.38771378 -6.25 7.5625 C-7.12269531 8.19091797 -7.99539062 8.81933594 -8.89453125 9.46679688 C-10.16103516 10.35141602 -10.16103516 10.35141602 -11.453125 11.25390625 C-12.22817383 11.80377197 -13.00322266 12.3536377 -13.80175781 12.92016602 C-16 14 -16 14 -18.28417969 13.67163086 C-19.13351074 13.33917358 -19.13351074 13.33917358 -20 13 C-18.9275 12.34 -17.855 11.68 -16.75 11 C-14.0808886 9.34792031 -11.48260719 7.64115253 -8.90234375 5.8515625 C-7.84144531 5.11679687 -6.78054687 4.38203125 -5.6875 3.625 C-4.17736328 2.56152344 -4.17736328 2.56152344 -2.63671875 1.4765625 C-1.76660156 0.98929687 -0.89648438 0.50203125 0 0 Z " fill="#9074AB" transform="translate(236,288)"/>
<path d="M0 0 C6.91289121 -0.39882065 13.48594493 0.56474557 20 3 C20.99 4.485 20.99 4.485 22 6 C19.03890924 5.44479548 16.16388742 4.77703665 13.25 4 C8.87390586 2.88092249 4.49236763 2.39516197 0 2 C0 1.34 0 0.68 0 0 Z " fill="#9273AC" transform="translate(388,250)"/>
<path d="M0 0 C0.66 0.33 1.32 0.66 2 1 C-7.18976251 12.2183537 -7.18976251 12.2183537 -14 15 C-14.66 14.67 -15.32 14.34 -16 14 C-10.74557475 9.23363401 -5.49783089 4.48507257 0 0 Z " fill="#676B88" transform="translate(239,154)"/>
<path d="M0 0 C-2.17121715 6.51365144 -9.10807597 10.89898735 -15 14 C-15.66 13.67 -16.32 13.34 -17 13 C-14.54862627 10.82535122 -12.08780163 8.66169267 -9.625 6.5 C-8.92632812 5.87996094 -8.22765625 5.25992188 -7.5078125 4.62109375 C-6.8375 4.03457031 -6.1671875 3.44804687 -5.4765625 2.84375 C-4.549646 2.02680664 -4.549646 2.02680664 -3.60400391 1.19335938 C-2 0 -2 0 0 0 Z " fill="#646681" transform="translate(192,195)"/>
<path d="M0 0 C7.467834 -0.71806096 13.44029907 1.4390195 20 5 C22.359375 7.171875 22.359375 7.171875 24 9 C22 8.33333333 20 7.66666667 18 7 C16.86304688 6.63841797 16.86304688 6.63841797 15.703125 6.26953125 C14.91421875 6.01558594 14.1253125 5.76164062 13.3125 5.5 C12.56613281 5.2628125 11.81976563 5.025625 11.05078125 4.78125 C9 4 9 4 6 2 C4.0103005 1.60986284 2.00980131 1.26797351 0 1 C0 0.67 0 0.34 0 0 Z " fill="#8382D8" transform="translate(400,251)"/>
<path d="M0 0 C4.94151304 2.40016348 7.04331244 5.52273027 10 10 C9.67 10.66 9.34 11.32 9 12 C6.625 11.3125 6.625 11.3125 4 10 C2.43061972 7.08543662 2 5.32058331 2 2 C1.34 2 0.68 2 0 2 C0 1.34 0 0.68 0 0 Z " fill="#7374A3" transform="translate(356,97)"/>
<path d="M0 0 C3.37483413 -0.08767555 6.74937215 -0.14061628 10.125 -0.1875 C11.55199219 -0.22520508 11.55199219 -0.22520508 13.0078125 -0.26367188 C18.46921074 -0.32056144 22.2531332 -0.04470749 27 3 C26.67 3.66 26.34 4.32 26 5 C24.865625 4.525625 23.73125 4.05125 22.5625 3.5625 C15.3185306 1.09349435 7.57908323 1.25234605 0 1 C0 0.67 0 0.34 0 0 Z " fill="#717495" transform="translate(329,93)"/>
<path d="M0 0 C2.70329311 3.29590691 4.41900085 6.75613519 6.1875 10.625 C6.71730469 11.77226562 7.24710937 12.91953125 7.79296875 14.1015625 C9 17 9 17 9 19 C8.34 19 7.68 19 7 19 C3.33948658 12.94121917 0 7.20719237 0 0 Z " fill="#6A6C85" transform="translate(419,216)"/>
<path d="M0 0 C1.98 0.66 3.96 1.32 6 2 C6 2.66 6 3.32 6 4 C6.99 4.33 7.98 4.66 9 5 C8.67 5.99 8.34 6.98 8 8 C5.0280615 6.87548273 2.66559313 5.77706209 0 4 C0 2.68 0 1.36 0 0 Z " fill="#7173A7" transform="translate(62,379)"/>
<path d="M0 0 C4.87525683 0.44320517 6.77789429 1.37513108 10 5 C11.96494153 6.71202826 13.98257744 8.34938154 16 10 C15.67 10.66 15.34 11.32 15 12 C12.49618432 10.19272453 9.99761453 8.37833327 7.5 6.5625 C6.78457031 6.04623047 6.06914062 5.52996094 5.33203125 4.99804688 C4.65527344 4.50498047 3.97851562 4.01191406 3.28125 3.50390625 C2.65283203 3.04830322 2.02441406 2.5927002 1.37695312 2.12329102 C0.92255859 1.75260498 0.46816406 1.38191895 0 1 C0 0.67 0 0.34 0 0 Z " fill="#856986" transform="translate(386,372)"/>
<path d="M0 0 C2.14576637 -0.02685938 4.29162645 -0.04633088 6.4375 -0.0625 C7.63246094 -0.07410156 8.82742188 -0.08570313 10.05859375 -0.09765625 C13 0 13 0 14 1 C15.68183948 1.23287008 17.3712416 1.41264166 19.0625 1.5625 C19.98160156 1.64628906 20.90070313 1.73007813 21.84765625 1.81640625 C22.91306641 1.90728516 22.91306641 1.90728516 24 2 C24 2.66 24 3.32 24 4 C22.9378125 3.86722656 21.875625 3.73445312 20.78125 3.59765625 C20.09546875 3.51193359 19.4096875 3.42621094 18.703125 3.33789062 C15.13541667 2.89192708 11.56770833 2.44596354 8 2 C6.85337891 1.85667236 6.85337891 1.85667236 5.68359375 1.71044922 C2.84179688 1.35522461 2.84179688 1.35522461 0 1 C0 0.67 0 0.34 0 0 Z " fill="#8483DE" transform="translate(376,247)"/>
<path d="M0 0 C0.33 0.99 0.66 1.98 1 3 C-0.23553276 4.20254524 -1.48902339 5.38666232 -2.75 6.5625 C-3.79414062 7.55443359 -3.79414062 7.55443359 -4.859375 8.56640625 C-5.56578125 9.03949219 -6.2721875 9.51257813 -7 10 C-8.32 9.67 -9.64 9.34 -11 9 C-7.37 6.03 -3.74 3.06 0 0 Z " fill="#686A8A" transform="translate(101,270)"/>
<path d="M0 0 C-3.69644329 2.44829361 -7.00108188 3.69255736 -11.3125 4.6875 C-12.91544922 5.06455078 -12.91544922 5.06455078 -14.55078125 5.44921875 C-15.76314453 5.72185547 -15.76314453 5.72185547 -17 6 C-16.67 5.34 -16.34 4.68 -16 4 C-14.68 4 -13.36 4 -12 4 C-12 3.34 -12 2.68 -12 2 C-10.75579353 1.4654744 -9.50429064 0.94791389 -8.25 0.4375 C-7.55390625 0.14746094 -6.8578125 -0.14257812 -6.140625 -0.44140625 C-3.69987216 -1.07831803 -2.3596345 -0.80248831 0 0 Z " fill="#8381D2" transform="translate(293,261)"/>
<path d="M0 0 C0.99 0 1.98 0 3 0 C3 3 3 3 1.609375 4.640625 C0.99578125 5.17171875 0.3821875 5.7028125 -0.25 6.25 C-1.15492188 7.06210938 -1.15492188 7.06210938 -2.078125 7.890625 C-4 9 -4 9 -6.234375 8.671875 C-6.81703125 8.45015625 -7.3996875 8.2284375 -8 8 C-7.01 7.67 -6.02 7.34 -5 7 C-5 6.34 -5 5.68 -5 5 C-4.34 5 -3.68 5 -3 5 C-3 4.34 -3 3.68 -3 3 C-2.34 3 -1.68 3 -1 3 C-0.67 2.01 -0.34 1.02 0 0 Z " fill="#8482E5" transform="translate(201,188)"/>
<path d="M0 0 C0.99 0.33 1.98 0.66 3 1 C-2.445 5.455 -2.445 5.455 -8 10 C-8.66 9.34 -9.32 8.68 -10 8 C-8.40629329 6.63353852 -6.79967018 5.28212834 -5.1875 3.9375 C-4.29417969 3.18339844 -3.40085938 2.42929687 -2.48046875 1.65234375 C-1.25263672 0.83443359 -1.25263672 0.83443359 0 0 Z " fill="#6C6E8A" transform="translate(135,370)"/>
<path d="M0 0 C7.75 -0.125 7.75 -0.125 10 1 C13.08100341 1.27571479 16.16171476 1.44663533 19.25 1.62109375 C22 2 22 2 24 4 C18.06 3.67 12.12 3.34 6 3 C6 2.34 6 1.68 6 1 C4.02 1 2.04 1 0 1 C0 0.67 0 0.34 0 0 Z " fill="#AE61AE" transform="translate(304,343)"/>
<path d="M0 0 C1.134375 0.020625 2.26875 0.04125 3.4375 0.0625 C2.375 2 2.375 2 0.4375 4.0625 C-3.25 4.8125 -3.25 4.8125 -6.5625 5.0625 C-4.14811644 0.07277397 -4.14811644 0.07277397 0 0 Z " fill="#8481D5" transform="translate(240.5625,283.9375)"/>
<path d="M0 0 C-0.61488281 0.25394531 -1.22976562 0.50789063 -1.86328125 0.76953125 C-2.67152344 1.11371094 -3.47976562 1.45789063 -4.3125 1.8125 C-5.11300781 2.14894531 -5.91351563 2.48539062 -6.73828125 2.83203125 C-8.96515745 3.98200704 -10.34987767 5.13626961 -12 7 C-12.99 6.67 -13.98 6.34 -15 6 C-14.01 5.67 -13.02 5.34 -12 5 C-12 4.01 -12 3.02 -12 2 C-11.01 2 -10.02 2 -9 2 C-9 1.34 -9 0.68 -9 0 C-5.5657338 -0.85856655 -3.38317487 -0.97591583 0 0 Z " fill="#6D6B8A" transform="translate(152,363)"/>
<path d="M0 0 C3.05001831 3.66002197 7 9.07851471 7 14 C4 13 4 13 2.8125 11.1875 C2 9 2 9 2 5 C1.34 5 0.68 5 0 5 C0 3.35 0 1.7 0 0 Z " fill="#616579" transform="translate(408,194)"/>
<path d="M0 0 C3.05001831 3.66002197 7 9.07851471 7 14 C6.34 14 5.68 14 5 14 C4.15675328 12.421924 3.32576082 10.8372958 2.5 9.25 C2.0359375 8.36828125 1.571875 7.4865625 1.09375 6.578125 C0 4 0 4 0 0 Z " fill="#66697E" transform="translate(401,180)"/>
<path d="M0 0 C1.76227952 2.64341928 3.19871008 5.23077235 4.625 8.0625 C5.07101562 8.94035156 5.51703125 9.81820312 5.9765625 10.72265625 C7 13 7 13 7 15 C6.34 15 5.68 15 5 15 C-0.74031891 5.77448747 -0.74031891 5.77448747 0 0 Z " fill="#6C6E89" transform="translate(371,119)"/>
<path d="M0 0 C3.96 0 7.92 0 12 0 C12 0.66 12 1.32 12 2 C10.4176994 2.33820166 8.83410625 2.67035939 7.25 3 C5.92742187 3.2784375 5.92742187 3.2784375 4.578125 3.5625 C2 4 2 4 -2 4 C-1.34 2.68 -0.68 1.36 0 0 Z " fill="#B25EB4" transform="translate(154,356)"/>
<path d="M0 0 C0.33 0.66 0.66 1.32 1 2 C0.67 2.66 0.34 3.32 0 4 C-0.66 4 -1.32 4 -2 4 C-2 4.66 -2 5.32 -2 6 C-3.75 7.6875 -3.75 7.6875 -6 9 C-7.32 8.67 -8.64 8.34 -10 8 C-6.7 5.36 -3.4 2.72 0 0 Z " fill="#666783" transform="translate(76,291)"/>
<path d="M0 0 C-1.32 0.33 -2.64 0.66 -4 1 C-4 1.66 -4 2.32 -4 3 C-8.17737474 4.59138085 -11.53160785 5.21278058 -16 5 C-15.4225 4.71511719 -14.845 4.43023437 -14.25 4.13671875 C-12.82035827 3.41445183 -11.40184125 2.6693771 -10 1.89453125 C-9.34 1.53746094 -8.68 1.18039063 -8 0.8125 C-7.01 0.26529297 -7.01 0.26529297 -6 -0.29296875 C-3.59324463 -1.14379438 -2.37238501 -0.83139386 0 0 Z " fill="#9274B4" transform="translate(320,253)"/>
<path d="M0 0 C0 3 0 3 -2.375 5.6875 C-5 8 -5 8 -7 8 C-7 8.66 -7 9.32 -7 10 C-8.32 9.67 -9.64 9.34 -11 9 C-7.37 6.03 -3.74 3.06 0 0 Z " fill="#6A6C86" transform="translate(139,238)"/>
<path d="M0 0 C0.33 0 0.66 0 1 0 C0.9131252 1.95917659 0.80495488 3.91741871 0.6875 5.875 C0.62949219 6.96554687 0.57148437 8.05609375 0.51171875 9.1796875 C0.34285156 10.11039062 0.17398438 11.04109375 0 12 C-0.99 12.66 -1.98 13.32 -3 14 C-2.58846263 9.02906176 -2.20399168 4.55491614 0 0 Z " fill="#616378" transform="translate(46,323)"/>
<path d="M0 0 C0.66 0.33 1.32 0.66 2 1 C-6.07744875 8.66742597 -6.07744875 8.66742597 -12 10 C-9.375 6.125 -9.375 6.125 -6 5 C-5.34 4.01 -4.68 3.02 -4 2 C-2 0.75 -2 0.75 0 0 Z " fill="#AB61B2" transform="translate(196,318)"/>
<path d="M0 0 C3.42931954 3.7559214 4.56429083 8.23466745 6 13 C3 12 3 12 2.05078125 10.29296875 C1.80714844 9.59816406 1.56351562 8.90335937 1.3125 8.1875 C1.06113281 7.50042969 0.80976563 6.81335938 0.55078125 6.10546875 C0 4 0 4 0 0 Z " fill="#8B6B8C" transform="translate(456,291)"/>
<path d="M0 0 C-4.58921384 3.15654048 -8.29370646 5.57202798 -14 6 C-13 4 -13 4 -10 3 C-9.525625 2.505 -9.05125 2.01 -8.5625 1.5 C-5.70323524 -1.24489417 -3.67198303 -1.22399434 0 0 Z " fill="#A864B4" transform="translate(291,264)"/>
<path d="M0 0 C0.66 0.33 1.32 0.66 2 1 C-1.56430755 4.14985318 -4.40693504 6.5140084 -9 8 C-7.83917375 4.51752126 -7.09067524 4.11180756 -4.0625 2.25 C-3.35222656 1.80140625 -2.64195312 1.3528125 -1.91015625 0.890625 C-1.27980469 0.59671875 -0.64945313 0.3028125 0 0 Z " fill="#9B6CAB" transform="translate(216,302)"/>
<path d="M0 0 C0 0.99 0 1.98 0 3 C-1.86328125 4.60546875 -1.86328125 4.60546875 -4.3125 6.1875 C-5.11300781 6.71730469 -5.91351563 7.24710938 -6.73828125 7.79296875 C-9 9 -9 9 -12 9 C-10.38050958 7.49405319 -8.75424026 5.99539332 -7.125 4.5 C-6.22007812 3.6646875 -5.31515625 2.829375 -4.3828125 1.96875 C-2 0 -2 0 0 0 Z " fill="#676B81" transform="translate(222,170)"/>
<path d="M0 0 C1 2 1 2 0.0625 5.125 C-0.288125 6.07375 -0.63875 7.0225 -1 8 C-1.66 8 -2.32 8 -3 8 C-3 8.66 -3 9.32 -3 10 C-3.66 10 -4.32 10 -5 10 C-3.84414715 6.08788267 -2.64465038 3.1254959 0 0 Z " fill="#696D8F" transform="translate(52,313)"/>
<path d="M0 0 C0.66 0.33 1.32 0.66 2 1 C-1.96 4.465 -1.96 4.465 -6 8 C-6.33 7.01 -6.66 6.02 -7 5 C-4.63707344 2.47411298 -3.33537489 1.11179163 0 0 Z " fill="#8282D6" transform="translate(275,127)"/>
<path d="M0 0 C0 0.99 0 1.98 0 3 C-0.99 3.33 -1.98 3.66 -3 4 C-3 4.99 -3 5.98 -3 7 C-6 9 -6 9 -8.1875 8.625 C-8.785625 8.41875 -9.38375 8.2125 -10 8 C-6.25 5 -6.25 5 -4 5 C-4 4.34 -4 3.68 -4 3 C-2 1.375 -2 1.375 0 0 Z " fill="#8384E5" transform="translate(88,284)"/>
<path d="M0 0 C4.85419266 0.59197472 8.64240676 1.86392488 13 4 C13.33 4.66 13.66 5.32 14 6 C12.35 5.67 10.7 5.34 9 5 C9 4.34 9 3.68 9 3 C8.071875 3.061875 7.14375 3.12375 6.1875 3.1875 C3 3 3 3 1.125 1.5 C0.75375 1.005 0.3825 0.51 0 0 Z " fill="#B65BB9" transform="translate(407,256)"/>
<path d="M0 0 C0.33 0.99 0.66 1.98 1 3 C-0.65 4.65 -2.3 6.3 -4 8 C-4.99 7.67 -5.98 7.34 -7 7 C-2.25 1.125 -2.25 1.125 0 0 Z " fill="#8482E3" transform="translate(191,197)"/>
<path d="M0 0 C2 2 2 2 2.1953125 3.9453125 C2.13020833 5.96354167 2.06510417 7.98177083 2 10 C0 8.625 0 8.625 -2 7 C-2 6.34 -2 5.68 -2 5 C-1.34 5 -0.68 5 0 5 C0 3.35 0 1.7 0 0 Z " fill="#817698" transform="translate(446,271)"/>
<path d="M0 0 C0.33 0.99 0.66 1.98 1 3 C-0.75 5.0625 -0.75 5.0625 -3 7 C-4.32 6.67 -5.64 6.34 -7 6 C-4.69 4.02 -2.38 2.04 0 0 Z " fill="#6D718B" transform="translate(249,146)"/>
<path d="M0 0 C0.66 0.33 1.32 0.66 2 1 C1.2884375 1.6496875 1.2884375 1.6496875 0.5625 2.3125 C-1.23686957 4.02309613 -1.23686957 4.02309613 -2 7 C-3.98 7.33 -5.96 7.66 -8 8 C-5.33333333 5.33333333 -2.66666667 2.66666667 0 0 Z " fill="#676B85" transform="translate(270,128)"/>
<path d="M0 0 C4.72463088 0.46319911 8.17057052 1.09891706 12 4 C12 4.66 12 5.32 12 6 C7.96479403 4.41037341 3.98188718 2.71767682 0 1 C0 0.67 0 0.34 0 0 Z " fill="#886387" transform="translate(365,361)"/>
<path d="M0 0 C0.99 0.33 1.98 0.66 3 1 C1.38405168 3.04119788 -0.2856382 5.04072937 -2 7 C-2.66 7 -3.32 7 -4 7 C-4 5.35 -4 3.7 -4 2 C-2.68 2 -1.36 2 0 2 C0 1.34 0 0.68 0 0 Z " fill="#897ED4" transform="translate(160,345)"/>
<path d="M0 0 C0.33 0.66 0.66 1.32 1 2 C-0.32 3.65 -1.64 5.3 -3 7 C-4.32 6.67 -5.64 6.34 -7 6 C-4.69 4.02 -2.38 2.04 0 0 Z " fill="#696E89" transform="translate(89,280)"/>
<path d="M0 0 C2.11635213 2.57642867 3.67339287 4.62505968 4 8 C3.01 9.485 3.01 9.485 2 11 C0.80712589 7.12315913 0 4.08378077 0 0 Z " fill="#6E7195" transform="translate(397,172)"/>
<path d="M0 0 C2.64465038 3.1254959 3.84414715 6.08788267 5 10 C4.34 10.66 3.68 11.32 3 12 C2.49166409 10.75336669 1.99368855 9.50250613 1.5 8.25 C1.2215625 7.55390625 0.943125 6.8578125 0.65625 6.140625 C0 4 0 4 0 0 Z " fill="#5C6279" transform="translate(366,109)"/>
<path d="M0 0 C0.66 0.33 1.32 0.66 2 1 C-0.88341534 5.21422242 -3.04303419 6.76075855 -8 8 C-5.33333333 5.33333333 -2.66666667 2.66666667 0 0 Z " fill="#68687E" transform="translate(294,108)"/>
<path d="M0 0 C1.9375 0.375 1.9375 0.375 4 1 C4.33 1.66 4.66 2.32 5 3 C6.64363134 3.72159424 8.31050386 4.39351421 10 5 C10 5.66 10 6.32 10 7 C7.03824877 6.38722388 5.61941217 5.74627478 3 4 C3 3.34 3 2.68 3 2 C2.01 1.67 1.02 1.34 0 1 C0 0.67 0 0.34 0 0 Z " fill="#AE62B0" transform="translate(395,376)"/>
<path d="M0 0 C2.96404505 2.80804268 5.44499019 5.18315774 7 9 C5 9 5 9 2.375 6.75 C0 4 0 4 0 0 Z " fill="#8181C7" transform="translate(48,362)"/>
<path d="M0 0 C0.66 0.33 1.32 0.66 2 1 C-0.13478166 4.20217249 -1.62795029 5.27285259 -5 7 C-5.99 7 -6.98 7 -8 7 C-5.36 4.69 -2.72 2.38 0 0 Z " fill="#887CBC" transform="translate(190,320)"/>
<path d="M0 0 C0 0.66 0 1.32 0 2 C-0.639375 2.28875 -1.27875 2.5775 -1.9375 2.875 C-4.15206079 3.82823451 -4.15206079 3.82823451 -5 6 C-7.5625 6.625 -7.5625 6.625 -10 7 C-3.18421053 0 -3.18421053 0 0 0 Z " fill="#8483D0" transform="translate(222,173)"/>
<path d="M0 0 C2.15377564 2.62198774 3.40072174 4.64404172 4 8 C2.68 8 1.36 8 0 8 C0 5.36 0 2.72 0 0 Z " fill="#71739C" transform="translate(382,142)"/>
<path d="M0 0 C-4.30769231 3.93846154 -4.30769231 3.93846154 -7.8125 4.25 C-8.534375 4.1675 -9.25625 4.085 -10 4 C-7.39928297 0.98864344 -3.94054294 -1.97027147 0 0 Z " fill="#B75ABC" transform="translate(246,287)"/>
<path d="M0 0 C0 3 0 3 -1.3125 4.6875 C-3 6 -3 6 -6 6 C-5.8125 4.125 -5.8125 4.125 -5 2 C-2.4375 0.75 -2.4375 0.75 0 0 Z " fill="#8280DB" transform="translate(95,278)"/>
<path d="M0 0 C6.57142857 4 6.57142857 4 8 8 C6.68 7.67 5.36 7.34 4 7 C4 6.34 4 5.68 4 5 C3.34 5 2.68 5 2 5 C1.34 3.35 0.68 1.7 0 0 Z " fill="#B45CB9" transform="translate(438,272)"/>
<path d="M0 0 C0 0.99 0 1.98 0 3 C-0.99 3.33 -1.98 3.66 -3 4 C-3 4.66 -3 5.32 -3 6 C-4.65 6.66 -6.3 7.32 -8 8 C-5.92856799 3.96615872 -4.03384128 2.07143201 0 0 Z " fill="#7C7EAE" transform="translate(179,206)"/>
<path d="M0 0 C3.625 -0.1875 3.625 -0.1875 7 0 C4.64031256 2.09749995 3.45383006 2.96905704 0.25 3.1875 C-0.86375 3.0946875 -0.86375 3.0946875 -2 3 C-1.34 2.01 -0.68 1.02 0 0 Z " fill="#8282E0" transform="translate(108,385)"/>
<path d="M0 0 C2.31 0.33 4.62 0.66 7 1 C7 1.66 7 2.32 7 3 C7.66 3 8.32 3 9 3 C9 3.66 9 4.32 9 5 C5.54074837 3.7508258 2.85306797 2.32472205 0 0 Z " fill="#896489" transform="translate(377,367)"/>
<path d="M0 0 C3.08089673 2.77280706 4.68775452 5.06326356 6 9 C4.125 8.4375 4.125 8.4375 2 7 C0.75 3.375 0.75 3.375 0 0 Z " fill="#63657C" transform="translate(360,100)"/>
<path d="M0 0 C0.33 0.66 0.66 1.32 1 2 C-1.31 3.65 -3.62 5.3 -6 7 C-6 6.01 -6 5.02 -6 4 C-5.01 3.67 -4.02 3.34 -3 3 C-3 2.34 -3 1.68 -3 1 C-2.01 0.67 -1.02 0.34 0 0 Z " fill="#8682ED" transform="translate(77,294)"/>
<path d="M0 0 C0.66 0.33 1.32 0.66 2 1 C0.515 3.475 0.515 3.475 -1 6 C-2.32 5.67 -3.64 5.34 -5 5 C-3.35 3.35 -1.7 1.7 0 0 Z " fill="#686B85" transform="translate(153,226)"/>
<path d="M0 0 C2.15377564 2.62198774 3.40072174 4.64404172 4 8 C3.01 8.495 3.01 8.495 2 9 C0.14223235 5.86501708 -0.20140476 3.62528568 0 0 Z " fill="#5C6675" transform="translate(415,208)"/>
<path d="" fill="#000000" transform="translate(0,0)"/>
<path d="" fill="#000000" transform="translate(0,0)"/>
<path d="" fill="#000000" transform="translate(0,0)"/>
<path d="" fill="#000000" transform="translate(0,0)"/>
<path d="" fill="#000000" transform="translate(0,0)"/>
<path d="" fill="#000000" transform="translate(0,0)"/>
<path d="" fill="#000000" transform="translate(0,0)"/>
<path d="" fill="#000000" transform="translate(0,0)"/>
<path d="" fill="#000000" transform="translate(0,0)"/>
<path d="" fill="#000000" transform="translate(0,0)"/>
<path d="" fill="#000000" transform="translate(0,0)"/>
<path d="" fill="#000000" transform="translate(0,0)"/>
<path d="" fill="#000000" transform="translate(0,0)"/>
<path d="" fill="#000000" transform="translate(0,0)"/>
<path d="" fill="#000000" transform="translate(0,0)"/>
<path d="" fill="#000000" transform="translate(0,0)"/>
<path d="" fill="#000000" transform="translate(0,0)"/>
<path d="" fill="#000000" transform="translate(0,0)"/>
<path d="" fill="#000000" transform="translate(0,0)"/>
<path d="" fill="#000000" transform="translate(0,0)"/>
<path d="" fill="#000000" transform="translate(0,0)"/>
<path d="" fill="#000000" transform="translate(0,0)"/>
<path d="" fill="#000000" transform="translate(0,0)"/>
<path d="" fill="#000000" transform="translate(0,0)"/>
<path d="" fill="#000000" transform="translate(0,0)"/>
<path d="" fill="#000000" transform="translate(0,0)"/>
<path d="" fill="#000000" transform="translate(0,0)"/>
<path d="" fill="#000000" transform="translate(0,0)"/>
<path d="" fill="#000000" transform="translate(0,0)"/>
<path d="" fill="#000000" transform="translate(0,0)"/>
<path d="" fill="#000000" transform="translate(0,0)"/>
<path d="" fill="#000000" transform="translate(0,0)"/>
<path d="" fill="#000000" transform="translate(0,0)"/>
<path d="" fill="#000000" transform="translate(0,0)"/>
<path d="" fill="#000000" transform="translate(0,0)"/>
<path d="" fill="#000000" transform="translate(0,0)"/>
<path d="" fill="#000000" transform="translate(0,0)"/>
<path d="" fill="#000000" transform="translate(0,0)"/>
<path d="" fill="#000000" transform="translate(0,0)"/>
</svg>
